<svg xmlns="http://www.w3.org/2000/svg" width="44" height="44" viewBox="0 0 44 44">
    <g fill="#0895FF" fill-rule="nonzero">
        <path d="M43.858 37.105l-9.054-16.151 7.853 9.632a.732.732 0 0 0 1.304-.169.735.735 0 0 0-.176-.756L30.6 13.51a.732.732 0 0 0-1.128 0L13.357 34.8a.735.735 0 0 0 .586 1.174c.231 0 .448-.108.586-.293l9.647-12.716-7.962 14.14a.736.736 0 0 0 0 .734.732.732 0 0 0 .637.36h2.198a.733.733 0 0 0 0-1.468h-.945l11.932-21.29 11.932 21.29h-3.142a.733.733 0 0 0 0 1.468h4.395a.736.736 0 0 0 .637-1.094z"/>
        <path d="M35.843 36.728h-4.098l1.686-1.684a.737.737 0 0 0 .19-.735L30.69 22.542a.734.734 0 0 0-1.393-.067l-4.97 14.253h-2.412a.734.734 0 0 0-.733.736c0 .406.328.735.733.735h2.933a.733.733 0 0 0 .689-.493l3.709-10.627v10.385c0 .406.328.735.733.735h5.865a.734.734 0 1 0 0-1.47zm-5.132-1.037v-6.964l1.386 5.567-1.386 1.397zM9.444 13.9c1.56 0 3.054-.624 4.151-1.735a5.863 5.863 0 0 0 1.69-4.178.732.732 0 0 0-1.314-.396 2.917 2.917 0 0 1-5.235-1.1 2.931 2.931 0 0 1 1.16-2.984.733.733 0 0 0 .278-.812.73.73 0 0 0-.73-.505c-3.226 0-5.841 2.621-5.841 5.855 0 3.234 2.615 5.855 5.841 5.855zM7.648 4.034a4.4 4.4 0 0 0 .306 4.193 4.378 4.378 0 0 0 5.484 1.626 4.378 4.378 0 0 1-8.306-1.249 4.394 4.394 0 0 1 2.516-4.606v.036zM16.778 2.919h.727v.73a.729.729 0 1 0 1.456 0v-.73h.728a.729.729 0 0 0 0-1.46h-.728V.73a.729.729 0 1 0-1.456 0v.73h-.727a.729.729 0 0 0 0 1.46zM21.909 11.675h.728v.73a.729.729 0 1 0 1.456 0v-.73h.728a.729.729 0 0 0 0-1.46h-.728v-.73a.729.729 0 1 0-1.456 0v.73h-.728a.729.729 0 0 0 0 1.46zM10.343 36.744a5.857 5.857 0 0 0 2.108-4.495c0-5.395-5.123-9.883-5.38-10.073a.732.732 0 0 0-.951 0c-.22.19-5.38 4.678-5.38 10.073a5.857 5.857 0 0 0 2.108 4.495 3.66 3.66 0 1 0 3.748 5.754 3.66 3.66 0 1 0 3.747-5.732v-.022zm-5.211-1.567a7.556 7.556 0 0 1 1.464-3.96 7.578 7.578 0 0 1 1.464 3.96 1.464 1.464 0 1 1-2.928 0zM2.204 32.25c0-3.829 3.162-7.32 4.392-8.514 1.23 1.193 4.391 4.685 4.391 8.514a4.393 4.393 0 0 1-1.464 3.302 3.222 3.222 0 0 0 0-.374c0-2.152-1.273-4.268-2.349-5.666a.732.732 0 0 0-1.156 0c-1.076 1.398-2.35 3.514-2.35 5.666a3.222 3.222 0 0 0 0 .374 4.393 4.393 0 0 1-1.464-3.302zm1.464 10.249a2.196 2.196 0 0 1-2.064-1.464h2.064a.732.732 0 0 0 0-1.464H1.604a2.196 2.196 0 1 1 2.064 2.928zm5.855 0a2.196 2.196 0 0 1-.732-4.26v2.064a.732.732 0 1 0 1.464 0v-2.065a2.196 2.196 0 0 1-.732 4.26z"/>
    </g>
</svg>
