<svg xmlns="http://www.w3.org/2000/svg" width="215.969" height="67.161" viewBox="0 0 215.969 67.161">
  <g id="MemphisLogoSVG" transform="translate(-123 -163)">
    <g id="Group_3" data-name="Group 3" transform="translate(194 187.679)">
      <g id="Group_1" data-name="Group 1" transform="translate(0 0.011)">
        <path id="Path_2" data-name="Path 2" d="M1213.21,154.554c1.041,0,2.081,0,3.122-.014-.621,1.348-.338,2.858-.4,4.287.182.073.365.149.547.225a3.792,3.792,0,0,0,1.474.111q.71-.231,1.417-.467a5.813,5.813,0,0,1,1.538-.276c-.028-1.295.189-2.668-.39-3.881,1.032.013,2.063.009,3.1.008a5.13,5.13,0,0,0-.445,2.41q0,6.456.005,12.913a5.51,5.51,0,0,0,.414,1.8c-1.021,0-2.044-.008-3.065,0a7.3,7.3,0,0,0,.389-3.256c0-2.558-.006-5.116.007-7.673a2.825,2.825,0,0,0-1.632-.292c-.574.125-1.037.543-1.619.643a4.273,4.273,0,0,1-1.743-.188c.018,3.022.005,6.045.005,9.068a4.5,4.5,0,0,0,.395,1.7c-1.029-.01-2.058-.006-3.086,0a4.455,4.455,0,0,0,.422-1.809q0-6.862,0-13.724A3.9,3.9,0,0,0,1213.21,154.554Z" transform="translate(-1158.971 -154.493)" fill="#f5a31b"/>
        <path id="Path_3" data-name="Path 3" d="M1380.831,154.392a5.893,5.893,0,0,1,3.221-.159c.064.849.054,1.7.046,2.552a3.6,3.6,0,0,0-1.827-.5,1.506,1.506,0,0,0-.973,1.626c.262,2.684,1.585,5.229,1.294,7.97a6.425,6.425,0,0,1-2.326,4.367,6.638,6.638,0,0,1-3.473,1.445c-1.041.077-2.082-.052-3.124-.021,0-.975-.006-1.951.01-2.925l.095.106a5.354,5.354,0,0,0,2.911.5,3.617,3.617,0,0,0,2.2-1.109,4.626,4.626,0,0,0,1.142-2.585,11.818,11.818,0,0,0-.35-3.61c-.057-.253-.119-.5-.178-.754-.037-.141-.067-.283-.094-.424l-.034-.061c-.089-.45-.205-.894-.314-1.339a7.83,7.83,0,0,1-.227-2.505A3.485,3.485,0,0,1,1380.831,154.392Z" transform="translate(-1302.862 -154.088)" fill="#f5a31b"/>
        <path id="Path_4" data-name="Path 4" d="M689.428,156.661c1.239.011,2.477.006,3.716.006a10.48,10.48,0,0,0,2.342,2.626,9.562,9.562,0,0,0,2.6-2.624c1.255-.005,2.509,0,3.764-.009a5.619,5.619,0,0,0-.327,3.351c.1,1.166.073,2.339.2,3.5.056,1.207.219,2.407.24,3.616.044,1.583.23,3.156.428,4.726a5.754,5.754,0,0,0,.838,1.9c-1.193,0-2.385,0-3.578,0a6.221,6.221,0,0,0,.344-3.6c-.3-3.687-.515-7.382-.841-11.068-1.173,1.039-2.432,1.978-3.576,3.051-1.26-.924-2.371-2.031-3.608-2.982-.031,1.82-.221,3.632-.347,5.447-.207,2.423-.411,4.846-.59,7.271a4.89,4.89,0,0,0,.207,1.153c.087.2.175.4.268.6.009.031.027.093.035.124-1.2,0-2.391,0-3.587,0a5.005,5.005,0,0,0,.872-2.075c.2-2.934.487-5.86.805-8.783.054-.828.02-1.658.055-2.488a19.825,19.825,0,0,0,.172-2.066A4.208,4.208,0,0,0,689.428,156.661Z" transform="translate(-687.95 -156.394)" fill="#f5a31b"/>
        <path id="Path_5" data-name="Path 5" d="M847.523,158.45a4.268,4.268,0,0,0-.429-1.79c2.934.014,5.868,0,8.8.01,0,.951-.009,1.9.01,2.855a4.229,4.229,0,0,0-1.282-.584c-1.613-.02-3.225,0-4.837-.012.005.607-.006,1.214,0,1.822,1.839-.005,3.678,0,5.516,0-.005.765-.007,1.531,0,2.3-1.838-.035-3.677,0-5.515-.022-.011,2.826,0,5.652-.008,8.479,1.611-.018,3.222.011,4.833-.012a4.714,4.714,0,0,0,1.286-.611c-.01.96-.016,1.92,0,2.88-2.941,0-5.881,0-8.821.005a4.075,4.075,0,0,0,.439-1.684Q847.514,165.263,847.523,158.45Z" transform="translate(-830.648 -156.394)" fill="#f5a31b"/>
        <path id="Path_6" data-name="Path 6" d="M945.746,156.664c1.24,0,2.48.008,3.722,0a10.859,10.859,0,0,0,2.346,2.632,8.724,8.724,0,0,0,2.584-2.619c1.269-.012,2.538-.007,3.807-.008a4.356,4.356,0,0,0-.39,2.711c.139,2.1.246,4.2.419,6.3.07.722.017,1.448.1,2.168.065,1.322.266,2.631.375,3.949a4.772,4.772,0,0,0,.9,1.967c-1.209,0-2.417-.005-3.625,0a6.37,6.37,0,0,0,.362-3.631c-.247-3.677-.637-7.343-.788-11.026-1.286.969-2.467,2.065-3.746,3.043-1.11-1.031-2.3-1.972-3.429-2.976-.287,3.478-.572,6.957-.791,10.441a7.143,7.143,0,0,0,.289,4.144c-1.191,0-2.381,0-3.572,0a5.445,5.445,0,0,0,.837-1.98c.294-2.883.481-5.775.8-8.656.083-.91-.011-1.827.078-2.735A6.248,6.248,0,0,0,945.746,156.664Z" transform="translate(-917.829 -156.394)" fill="#f5a31b"/>
        <path id="Path_7" data-name="Path 7" d="M1112.381,156.67c2.12.013,4.241,0,6.361.006a2.679,2.679,0,0,1,2.112.922,3.49,3.49,0,0,1-.62,2.863c-1.195,1.738-2.54,3.363-3.9,4.976a10.915,10.915,0,0,0-1.262,1.627c-.045,1.64-.006,3.283-.018,4.923a4.136,4.136,0,0,0,.423,1.778c-1.035,0-2.068-.008-3.1.006a6.578,6.578,0,0,0,.415-3.127q0-6.2,0-12.4a4.548,4.548,0,0,0-.413-1.581m2.686,7.239c1.27-1.558,2.667-3.012,3.883-4.618-.119-.151-.235-.3-.353-.451-1.18.005-2.361,0-3.54,0C1115.066,160.53,1115.054,162.219,1115.067,163.909Z" transform="translate(-1068.553 -156.403)" fill="#f5a31b"/>
        <path id="Path_8" data-name="Path 8" d="M1326.488,156.67c1.025.009,2.051,0,3.077,0-.064.173-.123.348-.181.523a10.856,10.856,0,0,0-.229,2.711q.014,4.953,0,9.908a9.056,9.056,0,0,0,.453,3.95c-1.05,0-2.1-.006-3.151.007a3.982,3.982,0,0,0,.451-1.677c.016-4.235-.027-8.472.035-12.705A5.871,5.871,0,0,0,1326.488,156.67Z" transform="translate(-1260.527 -156.403)" fill="#f5a31b"/>
      </g>
      <g id="Group_2" data-name="Group 2" transform="translate(85.853 0)">
        <path id="Path_14" data-name="Path 14" d="M1527.7,154.41a13.625,13.625,0,0,0,2.539-.43,2.814,2.814,0,0,1-1.3,2.159c-.965.638-2.167.423-3.252.394-.019,4.453,0,8.905-.01,13.357a4.023,4.023,0,0,0,.392,1.6c-1.032,0-2.063,0-3.095,0a5.052,5.052,0,0,0,.437-2.528c.01-4.153-.006-8.307.008-12.462a7.717,7.717,0,0,0-4.035.594c-.008-.9,0-1.792-.008-2.687C1522.145,154.405,1524.92,154.415,1527.7,154.41Z" transform="translate(-1519.37 -153.98)" fill="#0a2b4b"/>
        <path id="Path_15" data-name="Path 15" d="M1999.533,155.388a7.293,7.293,0,0,1,2.442.056c0,.875.005,1.749,0,2.623a2.631,2.631,0,0,0-1.653-.576,1.309,1.309,0,0,0-1.021,1.07,5.362,5.362,0,0,0,.189,2.069c.507,2.239,1.388,4.5,1.008,6.832a6.42,6.42,0,0,1-4.623,5.237c-1.376.462-2.828.145-4.242.188,0-.951-.01-1.9.008-2.853a6.046,6.046,0,0,0,2.2.575,3.83,3.83,0,0,0,2.918-1.05,4.664,4.664,0,0,0,1.25-3.228,9.913,9.913,0,0,0-.292-2.691c-.314-1.294-.627-2.589-.882-3.895a3.955,3.955,0,0,1,.544-2.991A3.469,3.469,0,0,1,1999.533,155.388Z" transform="translate(-1942.86 -155.171)" fill="#0a2b4b"/>
        <path id="Path_16" data-name="Path 16" d="M1893.3,156.69c2.263.018,4.529-.017,6.792.02a3.165,3.165,0,0,1,1.639.84,2.513,2.513,0,0,1,.081,1.545,9.373,9.373,0,0,1-1.328,2.788c-.472.794-.97,1.572-1.458,2.355-.258.333-.052.745.057,1.094.839,2.362,1.611,4.747,2.428,7.117a6.95,6.95,0,0,0,.714,1.47c-.962.033-1.917-.105-2.878-.116a4.124,4.124,0,0,0-.355-2.534c-.529-1.576-.884-3.206-1.452-4.77-.41.851-1.121,1.528-1.461,2.413-.109.956-.021,1.927-.047,2.889a4.571,4.571,0,0,0,.385,2.014q-1.558-.011-3.115,0a3.551,3.551,0,0,0,.444-1.6c.005-4.507,0-9.015.009-13.523a3.969,3.969,0,0,0-.452-2m2.738,2.155c-.008,2.234-.015,4.467,0,6.7,1.108-1.722,2.086-3.524,3.194-5.246a2.331,2.331,0,0,0,.316-1.428C1898.376,158.875,1897.207,158.84,1896.039,158.845Z" transform="translate(-1854.688 -156.41)" fill="#0a2b4b"/>
        <path id="Path_17" data-name="Path 17" d="M1634.684,158.217a14.008,14.008,0,0,1,2.008-.075,6.022,6.022,0,0,1,4.584,2.1,9.375,9.375,0,0,1,1.9,5.737,11.4,11.4,0,0,1-.952,5.415,6.483,6.483,0,0,1-3.277,3.266,7.444,7.444,0,0,1-5.751-.029,6.6,6.6,0,0,1-3.2-3.532,9.556,9.556,0,0,1-.706-3.886,11.954,11.954,0,0,1,.932-5.44,6.534,6.534,0,0,1,2.147-2.6,7.487,7.487,0,0,1,2.315-.952m.413,2.069a3.884,3.884,0,0,0-2,1.272,8.164,8.164,0,0,0-1.534,5.445,7.178,7.178,0,0,0,1.379,4.475,3.646,3.646,0,0,0,2.194,1.446,4.29,4.29,0,0,0,3.491-.682,6.57,6.57,0,0,0,2.18-4.17,8.783,8.783,0,0,0-1-5.94A4.3,4.3,0,0,0,1635.1,160.287Z" transform="translate(-1617.932 -157.709)" fill="#0a2b4b"/>
        <path id="Path_18" data-name="Path 18" d="M1778.311,157.95c1.2.044,2.394,0,3.59.03a7.129,7.129,0,0,0-1.647,2.561,6.959,6.959,0,0,0-.08,2.873,12.423,12.423,0,0,0,2.442,5.12,10.356,10.356,0,0,0,3.091,2.714c.01-3.124.005-6.247.006-9.37a9.991,9.991,0,0,0-.4-3.913c1.009.006,2.019,0,3.029,0a8.156,8.156,0,0,0-.337,3.3v12.5a3.409,3.409,0,0,0,.448,1.533,14.6,14.6,0,0,1-7.827-5.582,15.453,15.453,0,0,1-2.606-4.965,8.929,8.929,0,0,1-.208-3.85,9.362,9.362,0,0,0,.511-2.118C1778.315,158.5,1778.311,158.227,1778.311,157.95Z" transform="translate(-1751.011 -157.54)" fill="#0a2b4b"/>
      </g>
    </g>
    <g id="Group_4" data-name="Group 4" transform="translate(123 163)">
      <path id="Path_1" data-name="Path 1" d="M31.051.442A1.529,1.529,0,0,1,32.591.77,8.287,8.287,0,0,1,34.1,2.582c1.226,1.877,2.273,3.863,3.332,5.836,1.184,2.243,2.326,4.508,3.45,6.782.421.882.9,1.737,1.261,2.646a.936.936,0,0,1-.059.8,2.815,2.815,0,0,1-1.785-1.1c-1.5-1.566-3-3.122-4.5-4.688a17.842,17.842,0,0,0-2.406-2.251,1.505,1.505,0,0,0-1.562-.287,4.458,4.458,0,0,0-1.41,2.089c-1.581,3.84-2.7,7.848-4.057,11.77a11.1,11.1,0,0,1-.977,2.1,4.129,4.129,0,0,1-1.848,1.56,22.912,22.912,0,0,1-3.359,1.085c-1.017.249-2.013.575-3.027.835A24.021,24.021,0,0,0,13.3,31.009a2.212,2.212,0,0,0-1.215,1.1,1.346,1.346,0,0,0,.318,1.15,9.76,9.76,0,0,0,2.228,1.895c3.138,2.2,6.266,4.415,9.405,6.615a4.147,4.147,0,0,1,1.141,1.123c.1.177.171.464-.01.61-.265.232-.657.15-.975.106a11.956,11.956,0,0,1-2.18-.855C15.8,39.928,9.686,36.9,3.595,33.835a10.254,10.254,0,0,1-2.876-1.8A1.133,1.133,0,0,1,.5,30.721,4.369,4.369,0,0,1,2.391,29.2a58.018,58.018,0,0,1,8.433-3.3c2.488-.78,4.995-1.5,7.524-2.136a5.933,5.933,0,0,0,2.473-.913A3.922,3.922,0,0,0,22.1,20.91,154.619,154.619,0,0,1,27.777,5.423a20.262,20.262,0,0,1,1.461-3.049A4.5,4.5,0,0,1,31.051.442Z" transform="translate(-0.373 -0.344)" fill="#f5a31b"/>
      <path id="Path_9" data-name="Path 9" d="M281.25,196.849c3.907-.38,7.838-.495,11.764-.492,4.272-.007,8.543.151,12.808.368.826.123,1.786-.043,2.472.543a2.105,2.105,0,0,1-1.215.6,15.215,15.215,0,0,1-2.5.466c-2.388.144-4.776.342-7.147.67-2.341.343-4.687.676-7,1.16-.416.059-.641.444-.875.747a34.031,34.031,0,0,0-3.839,7.646c-.751,2.005-1.414,4.042-2.03,6.091-.531,1.682-.793,3.51-1.868,4.963a1.49,1.49,0,0,1-.71.482,3.858,3.858,0,0,1-.24-2.3c.1-1.931.173-3.865.4-5.786a48.591,48.591,0,0,1,1.986-10.288c-2.495.678-5.028,1.226-7.476,2.064a3.186,3.186,0,0,1-1.171.2c-.406-.128-.393-.618-.338-.959a13.982,13.982,0,0,1,1.017-3.036,7.964,7.964,0,0,1,1.229-2.1,1.9,1.9,0,0,1,1.188-.642C278.885,197.094,280.065,196.943,281.25,196.849Z" transform="translate(-245.964 -176.117)" fill="#f5a31b"/>
      <path id="Path_19" data-name="Path 19" d="M179.43,237.766c.3-.068.651-.2.915.018.1.211-.065.429-.165.606q-2.212,2.833-4.38,5.7c.01.69-.009,1.38.033,2.069.112,1.305.068,2.617.09,3.926a1.246,1.246,0,0,1-.659,1.083c-.421-.047-.489-.543-.588-.873-.243-1.238-.559-2.46-.819-3.695-1.072,1.415-2.156,2.819-3.236,4.226a2.1,2.1,0,0,0-.547,1.287,15.259,15.259,0,0,0,1.014,2.891q3,7.36,6,14.729a7.633,7.633,0,0,1,.674,2.253,1.034,1.034,0,0,1-.86,1.064,5.28,5.28,0,0,1-2.791-.636c-3.583-1.688-7.17-3.369-10.774-5.013-2.082-.953-4.174-1.887-6.312-2.7a3.76,3.76,0,0,0-2.656-.381,6.4,6.4,0,0,0-1.7,1.182c-4.361,4.032-8.6,8.188-12.931,12.256a19.651,19.651,0,0,1-2.081,1.748,3.423,3.423,0,0,1-2.153.805,1.168,1.168,0,0,1-.9-.719,4.328,4.328,0,0,1-.313-1.825,44.213,44.213,0,0,1,.455-6.492,111.046,111.046,0,0,1,2.075-11.118c.265-1.025.443-2.073.779-3.079a2.379,2.379,0,0,1,.629-1.054c.264-.091.441.192.528.4a13.225,13.225,0,0,1,.5,3.9c.207,2.548.368,5.1.556,7.646.11.686.224,1.542.932,1.873a1.961,1.961,0,0,0,1.02-.371,21.294,21.294,0,0,0,2.412-2.027c2.443-2.175,5.018-4.2,7.454-6.38a4.992,4.992,0,0,1,3.076-1.556,8.3,8.3,0,0,1,3.67,1.084c3.282,1.462,6.469,3.129,9.754,4.586a3.569,3.569,0,0,0,1.554.334,1.016,1.016,0,0,0,.88-1.064,7.2,7.2,0,0,0-.937-2.846c-.842-1.776-1.568-3.6-2.335-5.412a19.411,19.411,0,0,1-1.311-3.3,3.193,3.193,0,0,1,.315-2.143,13.1,13.1,0,0,1,1.508-2.315q1.281-1.684,2.726-3.235c-2.174-.016-4.344-.115-6.518-.144a2.524,2.524,0,0,1,1.034-1.446,2.471,2.471,0,0,1,1.033-.49c2.6-.54,5.217-.978,7.811-1.526a2.555,2.555,0,0,0,.5-.417c.786-.732,1.557-1.481,2.395-2.156A7.5,7.5,0,0,1,179.43,237.766Z" transform="translate(-120.459 -213.158)" fill="#0a2b4b"/>
    </g>
  </g>
</svg>
