<svg xmlns="http://www.w3.org/2000/svg" width="41" height="41" viewBox="0 0 41 41">
    <path fill="#0895FF" fill-rule="nonzero" d="M37.662 26.28l-3.014-7.286h4.16v-7.109h-3.226L21.735 3.72V0h-2.402v3.72L5.487 11.885H2.26v7.11h4.092L3.338 26.28A3.504 3.504 0 0 0 0 29.776c0 1.93 1.57 3.5 3.5 3.5s3.5-1.57 3.5-3.5a3.495 3.495 0 0 0-1.363-2.769l3.314-8.013h3.22l-1.164 10.463a3.506 3.506 0 0 0-2.753 3.42c0 1.93 1.57 3.5 3.5 3.5s3.5-1.57 3.5-3.5c0-1.34-.757-2.507-1.866-3.095l1.2-10.788h2.392v19.604H7.383V41h26.302v-2.402H24.09V18.994h2.323l1.2 10.788a3.503 3.503 0 0 0-1.866 3.095c0 1.93 1.57 3.5 3.5 3.5s3.5-1.57 3.5-3.5a3.506 3.506 0 0 0-2.752-3.42l-1.165-10.463h3.22l3.314 8.013A3.496 3.496 0 0 0 34 29.777c0 1.93 1.57 3.5 3.5 3.5s3.5-1.57 3.5-3.5a3.504 3.504 0 0 0-3.338-3.497zM3 31a1.001 1.001 0 0 1 0-2 1.001 1.001 0 0 1 0 2zm9 3a1.001 1.001 0 1 1 1-1c0 .551-.449 1-1 1zm17 0a1.001 1.001 0 1 1 1-1c0 .551-.449 1-1 1zM20.5 6L31 12H10l10.5-6zm.5 33h-2V19h2v20zM5 16v-2h32v2H5zm32 15a1.001 1.001 0 0 1 0-2 1.001 1.001 0 0 1 0 2z"/>
</svg>
