<svg xmlns="http://www.w3.org/2000/svg" width="48" height="43" viewBox="0 0 48 43">
    <g fill="#0895FF" fill-rule="nonzero">
        <path d="M7.5 4A4.505 4.505 0 0 0 3 8.5C3 10.981 5.019 13 7.5 13S12 10.981 12 8.5 9.981 4 7.5 4zm0 7.604A3.108 3.108 0 0 1 4.396 8.5 3.108 3.108 0 0 1 7.5 5.396 3.108 3.108 0 0 1 10.604 8.5 3.108 3.108 0 0 1 7.5 11.604zM7.5 0c-.276 0-.5.335-.5.748v1.504c0 .413.224.748.5.748s.5-.335.5-.748V.748C8 .335 7.776 0 7.5 0zM12.829 2.171a.584.584 0 0 0-.827 0l-.83.831a.584.584 0 0 0 .826.827l.83-.831a.584.584 0 0 0 0-.827zM15.252 7h-1.504c-.413 0-.748.224-.748.5s.335.5.748.5h1.504c.413 0 .748-.224.748-.5s-.335-.5-.748-.5zM12.829 13.002l-.831-.83a.584.584 0 0 0-.827.826l.831.83a.583.583 0 0 0 .827 0 .584.584 0 0 0 0-.826zM7.5 13c-.276 0-.5.335-.5.748v1.504c0 .413.224.748.5.748s.5-.335.5-.748v-1.504c0-.413-.224-.748-.5-.748zM3.829 12.171a.584.584 0 0 0-.827 0l-.83.831a.584.584 0 1 0 .826.827l.83-.831a.584.584 0 0 0 0-.827zM2.252 7H.748C.335 7 0 7.224 0 7.5s.335.5.748.5h1.504C2.665 8 3 7.776 3 7.5S2.665 7 2.252 7zM3.829 3.002l-.831-.83a.584.584 0 1 0-.827.826l.831.83a.583.583 0 0 0 .827 0 .584.584 0 0 0 0-.826zM47.657 40.655a6.565 6.565 0 0 0-4.077-1.151c-1.304-1.814-3.764-3.37-7.153-4.516-2.103-.711-4.451-1.225-6.947-1.53l5.072-12.852a9 9 0 0 1 1.98 1.971c.18.248.458.388.765.313 1.675-.307 3.452-.11 5.14.569 1.7.684 3.131 1.787 4.14 3.188a.706.706 0 0 0 1.273-.319c.027-.189.64-4.69-.82-9.593a.707.707 0 0 0-.883-.479.716.716 0 0 0-.473.891c.852 2.862.945 5.63.893 7.318a11.046 11.046 0 0 0-3.607-2.334c-1.56-.629-3.193-.896-4.783-.79l.035-.109c.553-1.707.966-3.466 1.169-5.251a20.78 20.78 0 0 0-.001-4.918 15.62 15.62 0 0 0-.607-2.789l-.006-.02c2.54 1.39 4.493 3.438 5.818 6.108.175.353.6.495.95.318a.718.718 0 0 0 .316-.96c-1.757-3.538-4.513-6.084-8.195-7.566-5.064-2.038-10.335-1.368-15.241 1.939-3.663 2.468-5.807 5.495-5.897 5.623a.72.72 0 0 0-.018.799c.155.245.441.37.725.317 1.687-.317 3.477-.122 5.177.562 1.675.675 3.09 1.755 4.096 3.128.196.267.481.43.816.33a8.876 8.876 0 0 1 2.754-.051l-5.656 14.333c-.143-.001-.285-.004-.428-.004-3.263 0-6.381.328-9.268.976a.715.715 0 0 0-.538.853.707.707 0 0 0 .845.543c2.747-.616 5.846-.942 8.96-.942 1.478 0 2.955.07 4.425.218l.015.001c2.733.274 5.294.8 7.555 1.565 2.698.913 4.782 2.116 6.005 3.449a6.658 6.658 0 0 0-1.77.862 5.148 5.148 0 0 1-5.856 0 6.545 6.545 0 0 0-7.445 0 5.148 5.148 0 0 1-5.856 0 6.545 6.545 0 0 0-7.445 0 5.148 5.148 0 0 1-5.855 0 6.654 6.654 0 0 0-1.77-.862c1.22-1.331 3.3-2.533 5.994-3.445.37-.126.57-.531.446-.905a.706.706 0 0 0-.897-.451c-3.383 1.146-5.839 2.7-7.141 4.512a6.566 6.566 0 0 0-4.077 1.15.72.72 0 0 0-.189.994c.22.327.66.412.983.19a5.158 5.158 0 0 1 3.483-.883c.043.01.087.015.13.016a5.192 5.192 0 0 1 2.243.867 6.545 6.545 0 0 0 7.445 0 5.148 5.148 0 0 1 5.856 0 6.545 6.545 0 0 0 7.445 0 5.148 5.148 0 0 1 5.855 0A6.575 6.575 0 0 0 37.285 43a6.576 6.576 0 0 0 3.722-1.162 5.193 5.193 0 0 1 2.238-.866.693.693 0 0 0 .138-.017 5.158 5.158 0 0 1 3.48.883.703.703 0 0 0 .983-.19.72.72 0 0 0-.189-.993zM28.275 17.303l.023-.049a25.769 25.769 0 0 1 2.326-3.994.732.732 0 0 0-.159-.998.718.718 0 0 0-.988.16 26.686 26.686 0 0 0-1.935 3.166c-.208.397-.419.798-.597 1.21l-.01.02a10.96 10.96 0 0 0-4.009-2.752 10.969 10.969 0 0 0-4.208-.81c.945-1.074 2.498-2.641 4.519-3.997 2.004-1.345 4.072-2.222 6.148-2.609a13.457 13.457 0 0 1 6.044.26l-.025.014a15.64 15.64 0 0 0-3.012 2.19c-.357.33-.705.669-1.039 1.022a.72.72 0 0 0 .024 1.011.703.703 0 0 0 1-.024 16.153 16.153 0 0 1 3.052-2.551 11.156 11.156 0 0 1 1.615-.863c.148.339.34.84.52 1.495.854 3.106.623 6.457-.125 9.559a27.155 27.155 0 0 1-.558 1.98l-.007.021a10.91 10.91 0 0 0-3.54-2.5c-1.584-.705-3.328-1.058-5.06-.961zm-.259 16.002a44.968 44.968 0 0 0-2.094-.135l5.552-14.07c.336.098.667.214.99.346.053.022.865.397.863.4l-5.31 13.459z"/>
    </g>
</svg>
