<svg xmlns="http://www.w3.org/2000/svg" width="105" height="43" viewBox="0 0 105 43">
    <path fill="#19636A" fill-rule="nonzero" d="M8.12 9.068c-.483-.352-1.013-.516-1.91-.563-.414-.023-.644-.023-.989-.023-.092 0-.138.047-.138.164v5.553c0 1.547.07 1.945.805 2.25.621.257 1.15.28 1.68.28 1.035 0 2.783-.562 2.783-2.999 0-1.452-.483-3.42-2.231-4.662zM5.083 7.194c0 .187.07.234.161.257.208.047.552.07 1.082.07.759 0 1.265-.093 1.656-.445.598-.492.943-1.335.943-2.483 0-1.57-.897-3.632-2.876-3.632-.322 0-.529 0-.759.047-.16.047-.207.14-.207.398v5.788zm-2.76-.399c0-3.561 0-4.217-.046-4.967-.046-.797-.23-1.172-.989-1.336C1.104.445.713.422.391.422.138.422 0 .375 0 .21 0 .047.161.001.506 0c1.22 0 2.668.07 3.128.07C4.761.07 5.66 0 6.441 0c4.163 0 4.899 2.273 4.899 3.515 0 1.921-1.081 3.069-2.346 4.1 1.886.656 4.186 2.32 4.186 5.061 0 2.507-1.91 5.108-6.142 5.108-.275 0-.943-.047-1.61-.07a29.71 29.71 0 0 0-1.725-.07c-.253 0-.759 0-1.311.023-.529 0-1.127.047-1.587.047-.3 0-.46-.07-.46-.235 0-.117.092-.187.368-.187.345 0 .621-.047.828-.094.46-.094.575-.609.667-1.289.115-.984.115-2.835.115-4.99V6.795zm13.961 1.617c0-3.023.023-3.585-.023-4.218-.046-.703-.23-.89-.874-1.078-.16-.047-.506-.07-.782-.07-.23 0-.345-.07-.345-.21 0-.141.138-.188.437-.188 1.081 0 2.438.047 3.036.047.507 0 1.864-.047 2.6-.047.299 0 .437.047.437.187s-.115.211-.322.211c-.23 0-.345.023-.598.07-.53.094-.69.375-.736 1.078-.046.633-.046 1.195-.046 4.218V11.2c0 2.906.552 4.03 1.54 4.827.898.726 1.864.796 2.554.796.874 0 1.91-.257 2.714-1.054 1.127-1.078 1.173-2.812 1.173-4.85V8.412c0-3.023-.023-3.585-.046-4.218-.046-.68-.207-.89-.85-1.078-.162-.047-.507-.07-.737-.07-.23 0-.345-.07-.345-.21 0-.141.138-.188.414-.188 1.035 0 2.392.047 2.415.047.23 0 1.588-.047 2.37-.047.275 0 .414.047.414.187s-.115.211-.345.211c-.23 0-.346.023-.598.07-.553.094-.69.375-.737 1.078-.023.633-.046 1.195-.046 4.218v2.132c0 2.226-.23 4.57-1.932 5.998-1.426 1.219-2.967 1.43-4.278 1.43-1.058 0-3.151-.047-4.623-1.36-1.036-.913-1.84-2.39-1.84-5.271V8.41zm16.285 9.044c-.322-.14-.39-.234-.39-.68 0-1.077.09-2.32.114-2.647 0-.305.092-.516.253-.516.184 0 .207.188.207.328 0 .258.069.68.184 1.031.437 1.476 1.955 1.969 3.22 1.969 1.749 0 2.807-1.125 2.807-2.53 0-.868-.208-1.735-2.002-2.813l-1.173-.703c-2.392-1.429-3.174-2.765-3.174-4.522 0-2.437 2.3-4.006 5.106-4.006 1.311 0 2.347.187 2.876.328.184.046.276.117.276.257 0 .258-.07.82-.07 2.39 0 .422-.091.633-.252.633-.138 0-.207-.117-.207-.352 0-.187-.092-.796-.53-1.312-.298-.375-.942-.937-2.254-.937-1.449 0-2.76.773-2.76 2.132 0 .89.322 1.594 2.14 2.625l.827.468c2.668 1.5 3.497 3.023 3.497 4.827 0 1.476-.553 2.671-2.025 3.725-.966.703-2.3.82-3.38.82-1.174 0-2.416-.116-3.29-.515zm12.099-9.044c0-3.023 0-3.585-.023-4.218-.046-.68-.253-.914-.69-1.054a2.535 2.535 0 0 0-.736-.094c-.207 0-.322-.047-.322-.234 0-.117.16-.164.483-.164.759 0 2.139.047 2.714.047.506 0 1.817-.047 2.6-.047.252 0 .413.047.413.164 0 .187-.115.234-.322.234-.207 0-.368.023-.598.07-.552.094-.713.375-.759 1.078-.046.633-.046 1.195-.046 4.218v3.515c0 1.92 0 3.514.092 4.358.069.539.207.843.805.937.276.047.736.07 1.035.07.23 0 .322.117.322.211 0 .14-.16.211-.391.211-1.334 0-2.714-.07-3.266-.07-.46 0-1.84.07-2.645.07-.254 0-.391-.07-.391-.21 0-.094.069-.212.322-.212.299 0 .529-.023.713-.07.414-.094.529-.375.598-.96.091-.82.091-2.414.091-4.335V8.412zm9.66 6.584c.046 1.546.3 2.015.69 2.155.345.118.736.14 1.058.14.23 0 .345.095.345.212 0 .164-.184.21-.46.21-1.31 0-2.254-.07-2.622-.07-.184 0-1.15.07-2.185.07-.276 0-.46-.022-.46-.21 0-.117.138-.211.322-.211a4.1 4.1 0 0 0 .92-.094c.53-.14.598-.68.621-2.413l.184-11.81c0-.397.138-.679.345-.679.253 0 .53.305.874.656.253.258 3.29 3.421 6.234 6.35 1.38 1.383 4.071 4.194 4.37 4.475h.092L64.45 4.92c-.023-1.218-.207-1.57-.69-1.757-.299-.117-.782-.117-1.058-.117-.253 0-.322-.094-.322-.21 0-.165.207-.188.506-.188 1.058 0 2.139.047 2.576.047.23 0 .99-.047 1.978-.047.276 0 .46.023.46.187 0 .117-.115.211-.345.211-.207 0-.368 0-.62.07-.553.164-.714.516-.737 1.64l-.23 12.56c0 .445-.161.632-.322.632-.345 0-.621-.21-.828-.422a482.871 482.871 0 0 1-5.911-5.74c-2.209-2.156-4.348-4.57-4.74-4.92h-.068l.23 8.13zm17.113-6.584c0-3.023 0-3.585-.023-4.218-.046-.68-.23-.89-.874-1.078-.161-.047-.506-.07-.805-.07-.207 0-.345-.07-.345-.21 0-.141.16-.188.46-.188 1.058 0 2.346.047 2.92.047.645 0 5.13.023 5.521 0 .368-.024.69-.094.851-.117.115-.024.23-.094.322-.094.115 0 .138.094.138.187 0 .14-.115.375-.16 1.289-.024.21-.07 1.078-.116 1.312-.023.094-.069.328-.23.328-.138 0-.16-.094-.16-.258 0-.14-.024-.492-.139-.726-.16-.352-.322-.633-1.334-.726-.345-.047-2.76-.094-3.174-.094-.092 0-.138.07-.138.187v4.92c0 .118.023.212.138.212.46 0 3.082 0 3.542-.047.483-.047.782-.094.966-.305.161-.14.23-.257.323-.257.091 0 .16.093.16.21 0 .118-.046.446-.16 1.453a20.545 20.545 0 0 0-.093 1.336c0 .164-.023.445-.207.445-.138 0-.184-.07-.184-.164-.023-.211-.023-.469-.069-.727-.115-.398-.368-.702-1.127-.773-.368-.047-2.668-.093-3.174-.093-.092 0-.115.093-.115.21v1.594c0 .68-.023 2.366 0 2.952.046 1.359.667 1.664 2.737 1.664.53 0 1.38-.024 1.91-.258.505-.235.735-.656.873-1.476.047-.211.092-.305.23-.305.162 0 .185.258.185.469 0 .445-.161 1.804-.276 2.202-.139.516-.322.516-1.081.516-1.519 0-2.738-.024-3.727-.07-.989-.024-1.748-.048-2.346-.048-.23 0-.667.024-1.15.024-.483.024-.99.047-1.403.047-.253 0-.391-.07-.391-.211 0-.094.069-.211.322-.211.299 0 .529-.023.713-.07.414-.094.529-.469.598-1.055.092-.843.092-2.413.092-4.24V8.411zm11.178 9.044c-.322-.14-.391-.234-.391-.68 0-1.077.092-2.32.115-2.647 0-.305.092-.516.253-.516.184 0 .207.188.207.328 0 .258.07.68.184 1.031.437 1.476 1.955 1.969 3.22 1.969 1.748 0 2.806-1.125 2.806-2.53 0-.868-.207-1.735-2-2.813l-1.174-.703c-2.392-1.429-3.174-2.765-3.174-4.522 0-2.437 2.3-4.006 5.106-4.006 1.311 0 2.347.187 2.876.328.184.046.276.117.276.257 0 .258-.07.82-.07 2.39 0 .422-.091.633-.252.633-.138 0-.207-.117-.207-.352 0-.187-.092-.796-.53-1.312-.298-.375-.942-.937-2.254-.937-1.449 0-2.76.773-2.76 2.132 0 .89.322 1.594 2.14 2.625l.827.468c2.668 1.5 3.496 3.023 3.496 4.827 0 1.476-.552 2.671-2.024 3.725-.966.703-2.3.82-3.381.82-1.173 0-2.415-.116-3.289-.515zm11.454 0c-.321-.14-.39-.234-.39-.68 0-1.077.091-2.32.114-2.647 0-.305.092-.516.254-.516.183 0 .206.188.206.328 0 .258.07.68.185 1.031.436 1.476 1.955 1.969 3.22 1.969 1.748 0 2.806-1.125 2.806-2.53 0-.868-.207-1.735-2.001-2.813l-1.173-.703C94.902 9.466 94.12 8.13 94.12 6.373c0-2.437 2.3-4.006 5.106-4.006 1.311 0 2.346.187 2.875.328.184.046.276.117.276.257 0 .258-.069.82-.069 2.39 0 .422-.092.633-.253.633-.138 0-.207-.117-.207-.352 0-.187-.092-.796-.53-1.312-.298-.375-.942-.937-2.253-.937-1.45 0-2.76.773-2.76 2.132 0 .89.321 1.594 2.139 2.625l.828.468c2.668 1.5 3.496 3.023 3.496 4.827 0 1.476-.552 2.671-2.024 3.725-.966.703-2.3.82-3.382.82-1.172 0-2.415-.116-3.289-.515zM3.266 31.824c0-3.562 0-4.218-.046-4.968-.046-.796-.276-1.195-.782-1.312a3.203 3.203 0 0 0-.828-.094c-.23 0-.368-.046-.368-.234 0-.14.184-.187.552-.187.874 0 2.323.07 2.99.07.575 0 1.932-.07 2.806-.07.3 0 .483.047.483.187 0 .188-.138.234-.368.234-.23 0-.414.024-.69.071-.621.117-.805.515-.851 1.336-.046.75-.046 1.405-.046 4.967v4.123c0 2.273 0 4.124.092 5.132.069.632.23 1.054.92 1.148.322.047.828.093 1.173.093.253 0 .368.07.368.188 0 .164-.184.234-.437.234-1.518 0-2.967-.07-3.588-.07-.53 0-1.978.07-2.898.07-.3 0-.46-.07-.46-.234 0-.117.091-.188.368-.188.345 0 .62-.047.828-.093.46-.094.598-.492.667-1.172.115-.984.115-2.835.115-5.108v-4.123zm11.707 8.2c.047 1.547.3 2.015.69 2.156.346.117.737.14 1.059.14.23 0 .345.094.345.212 0 .164-.184.21-.46.21-1.311 0-2.254-.07-2.623-.07-.184 0-1.15.07-2.185.07-.276 0-.46-.023-.46-.21 0-.118.138-.211.322-.211.276 0 .644-.024.92-.094.53-.14.598-.68.621-2.413l.185-11.81c0-.398.137-.679.344-.679.254 0 .53.305.875.656.253.258 3.289 3.42 6.233 6.35 1.38 1.382 4.071 4.194 4.37 4.475h.092l-.207-8.857c-.023-1.218-.207-1.57-.69-1.757-.299-.117-.782-.117-1.058-.117-.253 0-.322-.094-.322-.211 0-.164.207-.188.506-.188 1.058 0 2.14.047 2.576.047.23 0 .99-.047 1.979-.047.276 0 .46.024.46.188 0 .117-.115.21-.345.21-.208 0-.369 0-.622.071-.552.164-.713.516-.736 1.64l-.23 12.559c0 .445-.16.633-.322.633-.345 0-.62-.211-.828-.422a486.645 486.645 0 0 1-5.911-5.74c-2.208-2.156-4.348-4.57-4.739-4.921h-.069l.23 8.13zm17.94 2.46c-.321-.14-.39-.234-.39-.679 0-1.078.092-2.32.115-2.648 0-.304.092-.515.253-.515.184 0 .207.187.207.328 0 .258.069.68.184 1.031.437 1.476 1.955 1.968 3.22 1.968 1.748 0 2.806-1.125 2.806-2.53 0-.867-.207-1.734-2-2.812l-1.174-.703c-2.392-1.43-3.174-2.765-3.174-4.522 0-2.437 2.3-4.007 5.106-4.007 1.311 0 2.346.188 2.876.328.184.047.276.117.276.258 0 .258-.07.82-.07 2.39 0 .422-.091.632-.253.632-.138 0-.207-.117-.207-.351 0-.187-.092-.796-.529-1.312-.299-.375-.943-.937-2.254-.937-1.449 0-2.76.773-2.76 2.132 0 .89.322 1.593 2.139 2.624l.828.469c2.668 1.5 3.496 3.022 3.496 4.826 0 1.477-.552 2.672-2.024 3.726-.966.703-2.3.82-3.381.82-1.173 0-2.415-.117-3.29-.515zm14.032-9.044c0-3.022 0-3.584-.023-4.217-.046-.68-.253-.914-.69-1.055a2.54 2.54 0 0 0-.736-.093c-.207 0-.322-.047-.322-.235 0-.117.16-.164.483-.164.759 0 2.139.047 2.714.047.506 0 1.817-.047 2.6-.047.252 0 .413.047.413.164 0 .188-.115.235-.322.235-.207 0-.368.023-.598.07-.552.094-.713.375-.759 1.078-.046.633-.046 1.195-.046 4.217v3.515c0 1.922 0 3.515.092 4.358.069.54.207.844.805.937.276.047.736.07 1.035.07.23 0 .322.118.322.212 0 .14-.16.21-.391.21-1.334 0-2.714-.07-3.266-.07-.46 0-1.84.07-2.645.07-.253 0-.391-.07-.391-.21 0-.094.069-.211.322-.211.299 0 .529-.024.713-.07.414-.094.529-.375.598-.961.091-.82.091-2.413.091-4.335V33.44zm13.042 2.203c0 2.109.023 3.632.046 4.03.022.492.069 1.195.23 1.406.253.375 1.058.796 2.645.796 1.84 0 3.197-.328 4.416-1.359 1.311-1.1 1.725-2.882 1.725-4.943 0-2.53-.989-4.171-1.886-4.968-1.863-1.687-4.071-1.897-5.658-1.897-.415 0-1.081.046-1.242.14-.184.07-.254.164-.254.398-.023.68-.023 2.32-.023 3.89v2.507zm-2.715-2.203c0-3.022 0-3.584-.023-4.217-.046-.68-.23-.89-.874-1.078-.16-.047-.506-.07-.805-.07-.207 0-.345-.07-.345-.211 0-.14.161-.188.46-.188 1.058 0 2.346.047 2.922.047.62 0 2.07-.047 3.289-.047 2.53 0 5.934 0 8.142 2.273 1.012 1.031 1.91 2.694 1.91 5.061 0 2.507-1.059 4.405-2.209 5.553-.92.937-3.059 2.343-6.785 2.343-.736 0-1.61-.07-2.415-.117a26.013 26.013 0 0 0-2.048-.117c-.23 0-.667.023-1.15.023-.483.024-.989.047-1.403.047-.253 0-.39-.07-.39-.21 0-.094.068-.212.321-.212.3 0 .53-.023.713-.07.414-.094.53-.468.598-1.054.092-.844.092-2.414.092-4.241V33.44zm19.85 0c0-3.022 0-3.584-.023-4.217-.046-.68-.23-.89-.874-1.078-.16-.047-.506-.07-.805-.07-.207 0-.345-.07-.345-.211 0-.14.161-.188.46-.188 1.058 0 2.346.047 2.921.047.644 0 5.13.023 5.52 0 .369-.023.69-.094.852-.117.115-.024.23-.094.322-.094.115 0 .138.094.138.188 0 .14-.115.375-.161 1.289-.023.21-.07 1.077-.115 1.312-.023.093-.07.328-.23.328-.138 0-.161-.094-.161-.258 0-.14-.023-.492-.138-.727-.161-.351-.322-.632-1.334-.726-.345-.047-2.76-.094-3.175-.094-.091 0-.138.07-.138.188v4.92c0 .117.023.211.138.211.46 0 3.083 0 3.543-.047.483-.047.782-.093.966-.304.16-.14.23-.258.322-.258s.16.094.16.21c0 .118-.045.446-.16 1.454a20.465 20.465 0 0 0-.092 1.335c0 .164-.023.446-.207.446-.138 0-.184-.07-.184-.165-.023-.21-.023-.468-.07-.726-.114-.398-.367-.703-1.126-.773-.368-.047-2.669-.094-3.174-.094-.093 0-.116.094-.116.211v1.593c0 .68-.022 2.367 0 2.953.047 1.358.667 1.663 2.738 1.663.529 0 1.38-.023 1.909-.258.506-.234.736-.656.874-1.476.046-.21.092-.304.23-.304.161 0 .184.257.184.468 0 .445-.16 1.804-.276 2.202-.138.516-.322.516-1.08.516-1.519 0-2.738-.023-3.727-.07-.99-.024-1.749-.047-2.346-.047-.23 0-.668.023-1.15.023-.483.024-.99.047-1.404.047-.253 0-.39-.07-.39-.21 0-.095.068-.212.321-.212.3 0 .53-.023.713-.07.414-.094.53-.469.598-1.054.092-.844.092-2.414.092-4.241V33.44zm16.331 1.547c0 .21.046.28.184.351.437.14 1.035.188 1.541.188.805 0 1.081-.07 1.426-.328.621-.445 1.311-1.312 1.311-2.953 0-2.811-1.886-3.538-3.082-3.538-.506 0-.989.024-1.196.07-.138.048-.184.118-.184.282v5.928zm-2.576-1.547c0-3.022 0-3.584-.023-4.217-.046-.68-.23-.89-.874-1.078-.161-.047-.506-.07-.805-.07-.207 0-.345-.07-.345-.211 0-.14.16-.188.46-.188 1.058 0 2.346.047 2.76.047.69 0 2.53-.047 3.151-.047 1.288 0 2.76.117 3.841.844.575.398 1.427 1.406 1.427 2.741 0 1.476-.829 2.788-2.807 4.405 1.795 2.25 3.22 4.054 4.44 5.295 1.127 1.148 1.84 1.242 2.162 1.312.207.047.322.047.483.047.16 0 .253.117.253.211 0 .164-.138.211-.391.211h-1.932c-1.127 0-1.68-.117-2.208-.398-.875-.445-1.633-1.383-2.76-2.929-.806-1.078-1.657-2.414-1.91-2.718-.115-.117-.23-.14-.368-.14l-1.817-.047c-.092 0-.161.046-.161.164v.28c0 1.852.023 3.398.115 4.242.069.586.16.96.782 1.054.299.047.736.07.989.07.161 0 .253.117.253.211 0 .14-.161.211-.414.211-1.173 0-2.852-.07-3.151-.07-.391 0-1.68.07-2.484.07-.253 0-.391-.07-.391-.21 0-.094.069-.212.322-.212.299 0 .529-.023.713-.07.414-.094.528-.468.598-1.054.092-.844.092-2.414.092-4.241V33.44z"/>
</svg>
