<svg xmlns="http://www.w3.org/2000/svg" width="83" height="39" viewBox="0 0 83 39">
    <g fill="none" fill-rule="evenodd">
        <path fill="#C82636" d="M26.691 27.55c.746-.075 1.269-.672 1.269-1.343V7.11c0-7.087 9.1-10.519 13.95-2.238 4.924 8.43 7.758 13.354 7.758 13.354V7.109c0-7.087 9.102-10.519 13.951-2.238 2.598 4.444 5.185 8.896 7.758 13.354V.17H82.27v31.631c0 8.132-9.549 9.4-13.429 2.91-2.312-3.805-8.28-13.652-8.28-13.652v10.743c.074 8.131-9.475 9.4-13.429 2.91a3714.01 3714.01 0 0 1-8.206-13.653v9.698c0 4.999-2.909 7.61-7.46 7.61H20.948C-5.984 38.368-6.208.172 20.574.172h5.968v10.817h-6.565c-10.967 0-12.16 16.562.746 16.562h5.968z"/>
        <path stroke="#FFF" stroke-width="2.638" d="M76.823.17v30.96c0 1.94-1.865 2.388-2.834 1.045 0 0-12.682-20.366-15.89-25.663-.97-1.343-2.984-.895-2.984 1.12V31.13c0 1.94-1.79 2.388-2.76 1.045 0 0-12.757-20.366-15.965-25.663-.97-1.343-2.984-.895-2.984 1.12v23.35c0 1.043-.82 1.939-1.94 1.939H20.202c-19.172 0-18.575-27.304-.447-27.304h6.937"/>
    </g>
</svg>
