<svg xmlns="http://www.w3.org/2000/svg" width="44" height="45" viewBox="0 0 44 45">
    <path fill="#0895FF" fill-rule="nonzero" d="M.826 12.43c-.016.09-.025.18-.028.27v1.85a1.835 1.835 0 0 0 1.188 1.714v2.724a1.71 1.71 0 0 0 1.627 1.704v15.736a1.711 1.711 0 0 0-1.627 1.705v2.716a1.856 1.856 0 0 0-1.188 1.729v1.81c0 .338.273.612.61.612h41.157c.336 0 .61-.274.61-.612v-1.81a1.855 1.855 0 0 0-1.188-1.73v-2.731a1.71 1.71 0 0 0-1.628-1.705v-15.72a1.71 1.71 0 0 0 1.628-1.704v-2.724a1.835 1.835 0 0 0 1.188-1.713v-1.84a1.785 1.785 0 0 0-.029-.268.61.61 0 0 0 .493-1.113L22.267.07a.61.61 0 0 0-.57 0L.326 11.318a.613.613 0 0 0-.256.827.61.61 0 0 0 .756.286zM3 17v-1h7v.991L3 17zm16 3.252v15.504a1.693 1.693 0 0 0-1.619 1.68V40H11.62v-2.564A1.693 1.693 0 0 0 10 35.756V20.248a1.693 1.693 0 0 0 1.619-1.68V16h5.754v2.564c.002.9.714 1.64 1.619 1.684l.008.004zM19 17v-1h7v.991L19 17zm15 3.252v15.504a1.694 1.694 0 0 0-1.619 1.68V40H26.62v-2.564A1.693 1.693 0 0 0 25 35.756V20.248a1.693 1.693 0 0 0 1.619-1.68V16h5.754v2.564c.001.9.713 1.64 1.619 1.684l.008.004zM34 17v-1h7v.991L34 17zm7 23v1h-7v-1h7zm-15 0v1h-7v-1h7zm-5.989-20h-.526c-.268 0-.485-.234-.485-.524V19h7v.476c0 .29-.217.524-.485.524H20.01zM23 21v15h-3V21h3zm-2.989 16h5.504c.268 0 .485.234.485.524V38h-7v-.476c0-.29.217-.524.485-.524h.526zM10 40v1H3v-1h7zM3 19.49V19h7v.476c0 .29-.217.524-.486.524h-6.04c-.266-.007-.476-.242-.474-.528v.017zm4 1.522V36H4V21l3 .012zM3 37.524c0-.29.217-.524.485-.524h6.03c.268 0 .485.234.485.524V38H3v-.476zm39 5.167V44H2v-1.31c0-.38.283-.69.631-.69H41.37c.343 0 .624.301.631.677v.014zm-1-5.167V38h-7v-.476c0-.29.217-.524.485-.524h6.042c.258.007.467.232.473.51v.014zM35 36V21h3v14.988L35 36zm5.996-16.517c0 .286-.217.517-.485.517h-6.026c-.268 0-.485-.231-.485-.517V19h7l-.004.483zM21 1l18 10H3L21 1zM2 12.597c0-.33.274-.597.611-.597h38.778c.337 0 .611.267.611.597v1.806c0 .33-.274.597-.611.597H2.611A.604.604 0 0 1 2 14.403v-1.806z"/>
</svg>
