<svg xmlns="http://www.w3.org/2000/svg" width="151" height="43" viewBox="0 0 151 43">
    <defs>
        <linearGradient id="a" x1="89.746%" x2="3.201%" y1="27.556%" y2="73.545%">
            <stop offset="0%" stop-color="#FF9100"/>
            <stop offset="5%" stop-color="#FF8D00"/>
            <stop offset="25%" stop-color="#FF8300"/>
            <stop offset="50%" stop-color="#FF8000"/>
            <stop offset="75%" stop-color="#FF8300"/>
            <stop offset="95%" stop-color="#FF8D00"/>
            <stop offset="100%" stop-color="#FF9100"/>
        </linearGradient>
        <linearGradient id="b" x1="97.235%" x2="2.737%" y1="63.276%" y2="36.708%">
            <stop offset="0%" stop-color="#FF9100"/>
            <stop offset="5%" stop-color="#FF8D00"/>
            <stop offset="25%" stop-color="#FF8300"/>
            <stop offset="50%" stop-color="#FF8000"/>
            <stop offset="75%" stop-color="#FF8300"/>
            <stop offset="95%" stop-color="#FF8D00"/>
            <stop offset="100%" stop-color="#FF9100"/>
        </linearGradient>
        <linearGradient id="c" x1="84.345%" x2="15.73%" y1="83.994%" y2="16.001%">
            <stop offset="0%" stop-color="#FF9100"/>
            <stop offset="5%" stop-color="#FF8D00"/>
            <stop offset="25%" stop-color="#FF8300"/>
            <stop offset="50%" stop-color="#FF8000"/>
            <stop offset="75%" stop-color="#FF8300"/>
            <stop offset="95%" stop-color="#FF8D00"/>
            <stop offset="100%" stop-color="#FF9100"/>
        </linearGradient>
        <linearGradient id="d" x1="68.937%" x2="31.06%" y1="95.46%" y2="4.541%">
            <stop offset="0%" stop-color="#FF9100"/>
            <stop offset="5%" stop-color="#FF8D00"/>
            <stop offset="25%" stop-color="#FF8300"/>
            <stop offset="50%" stop-color="#FF8000"/>
            <stop offset="75%" stop-color="#FF8300"/>
            <stop offset="95%" stop-color="#FF8D00"/>
            <stop offset="100%" stop-color="#FF9100"/>
        </linearGradient>
        <linearGradient id="e" x1="50%" x2="50%" y1="100%" y2="0%">
            <stop offset="0%" stop-color="#FF9100"/>
            <stop offset="5%" stop-color="#FF8D00"/>
            <stop offset="25%" stop-color="#FF8300"/>
            <stop offset="50%" stop-color="#FF8000"/>
            <stop offset="75%" stop-color="#FF8300"/>
            <stop offset="95%" stop-color="#FF8D00"/>
            <stop offset="100%" stop-color="#FF9100"/>
        </linearGradient>
    </defs>
    <g fill="none" fill-rule="nonzero">
        <path fill="#666" d="M68.752 28.827h-2.486c-.223 0-.306-.209-.407-.412l-2.932-5.005h-.45a82.53 82.53 0 0 1-2.646-.085v5.09c0 .226-.165.412-.39.412h-2.035a.411.411 0 0 1-.406-.412V14.887c0-.414.241-.558.65-.62 1.061-.165 3.337-.267 4.826-.267 3.135 0 6.03 1.136 6.03 4.665v.187c0 2.186-1.078 3.382-2.747 4.039l3.194 5.524c.042.063.042.12.042.167 0 .14-.08.245-.243.245zm-3.055-10.162c0-1.548-1.184-2.208-3.22-2.208-.43 0-2.282.041-2.646.081v4.478c.322.02 2.295.062 2.645.062 2.095 0 3.221-.41 3.221-2.226v-.187zm8.727 6.096c0 1.731.066 1.776 1.605 1.776h5.154c.225 0 .408.185.41.413v1.319c0 .291-.103.394-.41.434-.65.104-1.977.288-4.398.288-3.38 0-5.173.024-5.173-4.23V18.23c0-4.253 1.794-4.23 5.173-4.23 2.421 0 3.748.187 4.398.289.307.04.41.145.41.434v1.32a.415.415 0 0 1-.41.415H76.03c-1.54 0-1.605.046-1.605 1.772v1.894h6.516a.413.413 0 0 1 .408.41v1.49a.413.413 0 0 1-.408.413h-6.516v2.324zm16.31 4.23c-3.276 0-6.098-1.444-6.098-5.843v-8.59c0-.23.187-.394.41-.394h2.012c.226 0 .408.165.408.394v8.59c0 2.354 1.073 3.471 3.268 3.471 2.2 0 3.273-1.117 3.273-3.471v-8.59c0-.23.182-.394.406-.394h2.015c.226 0 .41.165.41.394v8.59c-.001 4.399-2.825 5.843-6.105 5.843zm19.49-12.434h-4.062v11.858a.416.416 0 0 1-.412.412h-2.015a.413.413 0 0 1-.408-.412V16.557h-4.064c-.221 0-.405-.141-.405-.369v-1.63c0-.23.184-.394.405-.394h10.96c.22 0 .404.165.404.394v1.63c0 .228-.183.37-.403.37zm27.649 12.27h-2.486c-.223 0-.303-.209-.405-.412l-2.934-5.005h-.454c-.526 0-2.174-.059-2.645-.085v5.09c0 .226-.161.412-.384.412h-2.034a.412.412 0 0 1-.408-.412V14.887c0-.414.24-.558.65-.62 1.058-.165 3.337-.267 4.82-.267 3.138 0 6.032 1.136 6.032 4.665v.187c0 2.186-1.08 3.382-2.749 4.039l3.2 5.524c.032.05.046.108.042.167 0 .14-.084.245-.245.245zm-3.054-10.162c0-1.548-1.185-2.208-3.225-2.208-.425 0-2.277.041-2.645.081v4.478c.33.02 2.304.062 2.645.062 2.1 0 3.225-.41 3.225-2.226v-.187zM145.643 29c-1.799 0-3.622-.313-4.602-.54-.2-.042-.386-.186-.386-.412V26.56c0-.225.185-.392.386-.392h.04c.817.104 2.723.372 4.605.372 1.81 0 2.364-.658 2.364-1.853 0-1.549-3.645-2.406-5.424-3.15-1.771-.742-2.399-2.164-2.399-3.607 0-2.272 1.803-3.924 5.59-3.924 1.94 0 3.717.374 4.41.543.204.041.364.186.364.391v1.528c0 .204-.139.37-.346.37h-.039c-1.345-.122-2.738-.373-4.508-.373-1.51 0-2.638.536-2.638 1.465 0 .679.765 1.303 1.67 1.667.903.361 2.089.828 3.443 1.38 1.715.704 2.827 1.728 2.827 3.71 0 2.083-1.282 4.313-5.357 4.313zm-30.11-4.24c0 1.732.064 1.777 1.607 1.777h5.158a.413.413 0 0 1 .403.413v1.319c0 .291-.102.394-.403.434-.656.104-1.98.288-4.401.288-3.386 0-5.175.024-5.175-4.23V18.23c0-4.253 1.789-4.23 5.175-4.23 2.421 0 3.745.187 4.4.289.302.04.404.145.404.434v1.32a.415.415 0 0 1-.403.415h-5.158c-1.543 0-1.607.046-1.607 1.772v1.894h6.517c.226 0 .404.187.404.41v1.49c0 .227-.18.412-.404.413h-6.517v2.324z"/>
        <path fill="url(#a)" d="M21.031 15.066c.242.443.078 1-.375 1.24a.943.943 0 0 1-1.266-.375.904.904 0 0 1 .375-1.239.945.945 0 0 1 .712-.072c.238.07.437.23.554.446zm-4.606 7.175a.54.54 0 1 0 .522.946.521.521 0 0 0 .223-.728.557.557 0 0 0-.745-.218zm-.093-2.206a.623.623 0 0 0-.256.847c.171.31.557.422.869.258a.63.63 0 0 0 .26-.854.648.648 0 0 0-.872-.251zm.581-2.123a.72.72 0 0 0-.3.974.742.742 0 0 0 .992.292c.171-.09.3-.244.355-.427a.71.71 0 0 0-.056-.55.743.743 0 0 0-.99-.289zm1.187-1.836a.81.81 0 0 0-.402.482.796.796 0 0 0 .067.62c.217.39.709.538 1.108.325a.807.807 0 0 0 .402-.478.792.792 0 0 0-.062-.616.816.816 0 0 0-.486-.395.831.831 0 0 0-.627.062zm-.908 8.253a.445.445 0 0 0-.185.614.469.469 0 0 0 .622.183.454.454 0 0 0 .182-.615.465.465 0 0 0-.62-.182zm10.599-7.511c.147.26.479.36.748.222a.544.544 0 0 0 .223-.736.554.554 0 0 0-.743-.218.533.533 0 0 0-.228.732zm-1.862-1.166a.643.643 0 0 0 .865.251.617.617 0 0 0 .262-.851.645.645 0 0 0-.863-.259.635.635 0 0 0-.264.86zm-2.152-.567c.091.167.246.292.43.346a.732.732 0 0 0 .554-.058.72.72 0 0 0 .356-.425.708.708 0 0 0-.055-.549.721.721 0 0 0-.434-.347.734.734 0 0 0-.555.06.72.72 0 0 0-.353.426.706.706 0 0 0 .057.547zm-2.246.087c.103.19.279.332.488.394.21.063.436.04.629-.06a.81.81 0 0 0 .33-1.102.83.83 0 0 0-1.102-.307.803.803 0 0 0-.345 1.075zm7.659 3.297a.454.454 0 0 0 .613.181.435.435 0 0 0 .187-.604.468.468 0 0 0-.622-.192.457.457 0 0 0-.178.615zm-1.581 8.581a.925.925 0 0 0-.555-.448.942.942 0 0 0-.714.075.912.912 0 0 0-.45.543.896.896 0 0 0 .076.698.951.951 0 0 0 1.266.372.913.913 0 0 0 .377-1.24zm-8.406-.89a.557.557 0 0 0-.74-.216.529.529 0 0 0-.223.728.546.546 0 0 0 .741.216.528.528 0 0 0 .223-.727zm1.865 1.167a.645.645 0 0 0-1.177.12.64.64 0 0 0 .916.739.635.635 0 0 0 .26-.859zm2.156.567c-.188-.348-.636-.472-.996-.291a.719.719 0 0 0-.295.975.74.74 0 0 0 1.35-.133.705.705 0 0 0-.059-.55zm2.244-.088a.834.834 0 0 0-1.118-.328.794.794 0 0 0-.323 1.097c.101.19.276.331.484.392a.818.818 0 0 0 .624-.068.797.797 0 0 0 .333-1.093zm5.097-7.06a.553.553 0 0 0 .231-.74.556.556 0 0 0-1.011.103.527.527 0 0 0 .045.413.554.554 0 0 0 .735.224zm.103 2.202a.622.622 0 0 0 .253-.853.645.645 0 0 0-.863-.255.635.635 0 0 0-.263.858c.165.3.566.412.873.25zm-.586 2.121a.718.718 0 0 0 .304-.977.741.741 0 0 0-.993-.292.721.721 0 0 0-.299.98.74.74 0 0 0 .988.289zm-1.18 1.828a.796.796 0 0 0 .331-1.093.827.827 0 0 0-1.51.153.812.812 0 0 0 .553 1.008c.21.061.436.037.627-.068z"/>
        <path fill="url(#b)" d="M26.793 12.683c-.089.289-.295.532-.571.675a1.23 1.23 0 0 1-.903.09 1.176 1.176 0 0 1-.71-.547 1.09 1.09 0 0 1-.096-.867c.121-.39.45-.689.864-.783.413-.095.848.03 1.14.324.292.296.397.718.276 1.108zm-11.4 2.688a.6.6 0 0 0-.73.383.56.56 0 0 0 .405.678.593.593 0 0 0 .722-.362c.097-.296-.088-.608-.396-.7zm2.063-2.172a.75.75 0 0 0-.55.057.697.697 0 0 0-.347.414.665.665 0 0 0 .058.529.717.717 0 0 0 .432.333c.385.106.787-.104.901-.47a.695.695 0 0 0-.494-.863zm2.643-1.53c-.488-.136-.999.13-1.146.595-.14.468.14.957.628 1.095a.952.952 0 0 0 .7-.071.885.885 0 0 0 .442-.526c.138-.467-.14-.953-.624-1.094zm2.927-.627a1.074 1.074 0 0 0-.79.078.998.998 0 0 0-.498.592.951.951 0 0 0 .083.755c.131.231.353.403.617.477.548.153 1.123-.146 1.286-.67a.95.95 0 0 0-.081-.755 1.023 1.023 0 0 0-.617-.477zm-8.936 7.017a.451.451 0 0 0-.332.034.42.42 0 0 0-.208.248.405.405 0 0 0 .033.321.444.444 0 0 0 .806-.083.403.403 0 0 0-.037-.32.435.435 0 0 0-.262-.2zm17.758 2.527a.538.538 0 0 0 .048.428.58.58 0 0 0 .351.27.591.591 0 0 0 .729-.381.559.559 0 0 0-.397-.698.594.594 0 0 0-.73.381zm-.678-2.81a.666.666 0 0 0 .057.53.718.718 0 0 0 .434.334.728.728 0 0 0 .9-.47.685.685 0 0 0-.489-.86.753.753 0 0 0-.552.054.7.7 0 0 0-.35.412zm-1.599-2.528a.854.854 0 0 0 .218.856.947.947 0 0 0 .883.248.904.904 0 0 0 .665-.608.841.841 0 0 0-.074-.67.907.907 0 0 0-.55-.42c-.487-.135-.995.13-1.142.594zm-2.25-1.963c-.16.526.156 1.076.705 1.229.549.153 1.124-.149 1.284-.674a.95.95 0 0 0-.082-.754 1.024 1.024 0 0 0-.617-.476c-.55-.154-1.128.148-1.29.675zm4.29 10.138a.421.421 0 0 0 .294.52c.111.033.232.02.334-.033a.42.42 0 0 0 .21-.252.401.401 0 0 0-.034-.32.445.445 0 0 0-.804.084zm-10.122 6.546c.09-.29.055-.603-.096-.87a1.182 1.182 0 0 0-.712-.548 1.236 1.236 0 0 0-.905.093c-.277.145-.482.39-.57.679-.09.29-.056.603.096.87.151.265.407.462.711.547.63.175 1.297-.172 1.476-.77zm-7.338-8.556a.559.559 0 0 0-.396-.698.6.6 0 0 0-.732.382.538.538 0 0 0 .05.427.606.606 0 0 0 .797.224.563.563 0 0 0 .28-.335zm.68 2.809a.659.659 0 0 0-.059-.525.71.71 0 0 0-.43-.33.742.742 0 0 0-.553.052.69.69 0 0 0-.347.415.689.689 0 0 0 .492.859c.383.107.785-.104.897-.471zm1.6 2.531c.14-.47-.14-.96-.628-1.1-.488-.134-.998.135-1.14.602a.845.845 0 0 0 .073.67.91.91 0 0 0 .549.423.957.957 0 0 0 .702-.07.89.89 0 0 0 .445-.525zm2.25 1.966c.159-.526-.157-1.077-.706-1.231a1.07 1.07 0 0 0-.788.082.994.994 0 0 0-.494.594.95.95 0 0 0 .085.752c.131.23.353.401.616.475.549.152 1.123-.148 1.287-.672zm11.922-2.092a.595.595 0 0 0 .734-.38.564.564 0 0 0-.398-.7.597.597 0 0 0-.73.381.56.56 0 0 0 .394.699zm-2.058 2.175c.382.108.783-.101.896-.467a.665.665 0 0 0-.055-.53.716.716 0 0 0-.431-.335c-.386-.108-.79.102-.905.47a.698.698 0 0 0 .495.862zm-2.643 1.53a.956.956 0 0 0 .703-.07.888.888 0 0 0 .442-.528.846.846 0 0 0-.076-.67.912.912 0 0 0-.549-.42.95.95 0 0 0-.894.206.857.857 0 0 0-.26.845c.077.306.318.549.634.638zm-2.925.625c.263.077.547.05.788-.076a.991.991 0 0 0 .497-.59c.16-.526-.154-1.077-.703-1.231-.55-.154-1.125.147-1.286.673-.157.524.158 1.071.704 1.224z"/>
        <path fill="url(#c)" d="M32.358 13.29a1.481 1.481 0 0 1-2.079.056 1.446 1.446 0 0 1-.058-2.06 1.473 1.473 0 0 1 2.077-.063c.591.555.618 1.48.06 2.067zM17.699 9.977a.734.734 0 0 0-1.026.03.716.716 0 0 0 .03 1.014.733.733 0 0 0 1.026-.03.714.714 0 0 0-.03-1.014zm3.676-1.386a.904.904 0 0 0-1.265.039.884.884 0 0 0 .038 1.256.904.904 0 0 0 1.266-.04.886.886 0 0 0-.04-1.255zm3.942-.285a1.148 1.148 0 0 0-1.608.046 1.121 1.121 0 0 0 .07 1.57c.448.418 1.15.409 1.586-.022a1.123 1.123 0 0 0-.048-1.594zm3.73.946a1.283 1.283 0 0 0-1.81.052 1.261 1.261 0 0 0 .051 1.792c.515.48 1.324.456 1.81-.052.484-.51.46-1.311-.052-1.792zm-14.463 3.15a.547.547 0 0 0-.764.023.531.531 0 0 0 .02.757.54.54 0 0 0 .744-.78zm18.82 13.22a.716.716 0 0 0 .03 1.017c.295.26.745.24 1.015-.044a.717.717 0 0 0-.017-1.006.733.733 0 0 0-1.027.033zm.93-3.712a.884.884 0 0 0 .041 1.253.898.898 0 0 0 1.51-.673.88.88 0 0 0-.284-.618.906.906 0 0 0-1.267.038zm-.285-3.908a1.119 1.119 0 0 0 .049 1.592 1.141 1.141 0 0 0 1.607-.049 1.12 1.12 0 0 0-.063-1.577 1.144 1.144 0 0 0-1.593.034zm-1.377-3.623a1.26 1.26 0 0 0-.235 1.39 1.28 1.28 0 0 0 1.207.747c.517-.016.974-.34 1.157-.82a1.26 1.26 0 0 0-.322-1.372 1.288 1.288 0 0 0-1.807.055zm-1.265 14.462a.535.535 0 0 0 .41.902.54.54 0 0 0 .376-.171.522.522 0 0 0-.023-.752.538.538 0 0 0-.763.021zm-15.612 1.874a1.45 1.45 0 0 0-.07-2.052 1.482 1.482 0 0 0-2.071.05 1.45 1.45 0 0 0 .09 2.03c.58.542 1.488.53 2.051-.028zm-3.184-14.336a.715.715 0 0 0 .167-.7.73.73 0 0 0-1.223-.287.708.708 0 0 0 .032 1.015.732.732 0 0 0 1.024-.028zm-.933 3.713a.887.887 0 0 0-.037-1.256.902.902 0 0 0-1.249.052c-.333.35-.325.899.019 1.239.36.335.926.32 1.267-.035zM11.965 24c.432-.454.41-1.17-.048-1.597a1.147 1.147 0 0 0-1.61.05 1.122 1.122 0 0 0 .05 1.593c.46.43 1.178.407 1.608-.046zm1.375 3.623c.483-.51.46-1.31-.053-1.792a1.281 1.281 0 0 0-1.805.055 1.26 1.26 0 0 0 .048 1.792 1.295 1.295 0 0 0 1.81-.055zm14.975 4.402a.727.727 0 0 0 1.222-.545.726.726 0 0 0-1.252-.471.714.714 0 0 0 .03 1.016zm-3.676 1.383a.903.903 0 0 0 1.267-.039.879.879 0 0 0-.037-1.252.905.905 0 0 0-1.27.04.883.883 0 0 0 .04 1.251zm-3.944.283a1.14 1.14 0 0 0 1.607-.043 1.119 1.119 0 0 0-.045-1.593 1.15 1.15 0 0 0-1.611.045 1.118 1.118 0 0 0 .049 1.59zm-3.722-.941a1.282 1.282 0 0 0 1.805-.053 1.259 1.259 0 0 0-.055-1.79 1.287 1.287 0 0 0-1.807.054 1.257 1.257 0 0 0 .057 1.789z"/>
        <path fill="url(#d)" d="M37.916 17.275a1.79 1.79 0 0 1-2.356-.944 1.81 1.81 0 0 1-.02-1.38c.177-.444.522-.8.959-.989a1.79 1.79 0 0 1 2.32.959 1.808 1.808 0 0 1-.903 2.354zM25.331 5.801a.991.991 0 0 0-.42-.634.98.98 0 0 0-.743-.147.984.984 0 0 0-.63.422.995.995 0 0 0-.147.747.99.99 0 0 0 1.94-.388zm4.245.928a1.201 1.201 0 0 0-.549-.738c-.273-.164-.6-.21-.908-.13a1.195 1.195 0 0 0-.735.551 1.207 1.207 0 0 0 .708 1.776c.412.116.854.003 1.16-.298.307-.301.43-.743.324-1.16zm3.915 1.9a1.496 1.496 0 0 0-.731-.883 1.494 1.494 0 0 0-2.018.634 1.508 1.508 0 0 0-.103 1.145 1.493 1.493 0 0 0 1.86.949 1.505 1.505 0 0 0 .992-1.844zm3.122 2.8a1.65 1.65 0 0 0-.856-.931 1.646 1.646 0 0 0-2.187.813c-.183.4-.2.856-.047 1.268a1.645 1.645 0 0 0 2.117.979 1.66 1.66 0 0 0 .973-2.13zM16.82 6.919a.721.721 0 0 0-.947-.376.725.725 0 0 0-.375.95c.157.367.58.536.945.378a.726.726 0 0 0 .377-.951zm17.958 23.89a1 1 0 0 0-.217 1.376.986.986 0 0 0 1.363.249.995.995 0 0 0 .232-1.388.988.988 0 0 0-1.378-.236zm1.967-3.881a1.207 1.207 0 0 0 .07 2.102c.386.2.848.176 1.21-.064a1.21 1.21 0 0 0 .354-1.65 1.194 1.194 0 0 0-1.634-.388zm.93-4.368a1.51 1.51 0 0 0-.57 2.047 1.483 1.483 0 0 0 2.033.57c.346-.193.601-.518.708-.901a1.505 1.505 0 0 0-1.035-1.853 1.484 1.484 0 0 0-1.135.137zm-.056-4.38a1.661 1.661 0 0 0 .205 3.054 1.648 1.648 0 0 0 2.09-1.04 1.66 1.66 0 0 0-.086-1.265 1.645 1.645 0 0 0-2.209-.749zm-9.06 17.947a.723.723 0 0 0-.146 1.244.716.716 0 0 0 .715.085.727.727 0 0 0 .378-.953.72.72 0 0 0-.948-.376zM8.503 30.033a1.808 1.808 0 0 0-.049-3.331 1.795 1.795 0 0 0-2.328 1.01 1.81 1.81 0 0 0 .02 1.38 1.79 1.79 0 0 0 2.357.941zm1.718-16.846a.994.994 0 0 0 .236-1.385.984.984 0 0 0-1.378-.238.992.992 0 0 0-.235 1.388.986.986 0 0 0 1.377.235zm-1.965 3.88a1.207 1.207 0 0 0 .372-1.665 1.194 1.194 0 0 0-1.653-.373 1.21 1.21 0 0 0-.37 1.663c.352.563 1.092.73 1.65.376zm-.934 4.37a1.504 1.504 0 1 0 .055-2.63 1.486 1.486 0 0 0-1.517.01 1.507 1.507 0 0 0-.567 2.043c.403.722 1.31.98 2.03.576zm.058 4.38a1.661 1.661 0 0 0-.205-3.057 1.652 1.652 0 0 0-2.09 1.042c-.14.417-.109.872.085 1.265a1.646 1.646 0 0 0 2.21.75zM19.67 38.199c.051.26.203.487.421.634.219.147.486.2.744.149a.998.998 0 0 0 .775-1.175.992.992 0 0 0-1.164-.78.996.996 0 0 0-.776 1.172zm-4.244-.931c.078.31.276.576.549.74.273.163.6.21.908.13a1.21 1.21 0 0 0 .56-2.009 1.193 1.193 0 0 0-1.886.227 1.21 1.21 0 0 0-.13.912zm-3.915-1.9c.116.38.379.699.73.884.35.185.76.221 1.139.1.378-.116.695-.38.88-.734.184-.352.221-.765.103-1.145a1.495 1.495 0 0 0-2.751-.25c-.184.352-.22.764-.101 1.144zm-3.124-2.802c.15.413.459.749.856.932.397.184.85.2 1.26.047a1.66 1.66 0 0 0 .943-2.116 1.644 1.644 0 0 0-2.084-.99 1.662 1.662 0 0 0-.975 2.127zm23.566 1.461a.78.78 0 0 0-.107 1.076.77.77 0 0 0 1.066.142.78.78 0 0 0-.183-1.35.77.77 0 0 0-.776.132zm-7.245 3.142a.779.779 0 0 0-.349 1.393.771.771 0 0 0 1.082-.16.78.78 0 0 0-.733-1.233zM20.947 5.946a.769.769 0 0 0-.88-.655.773.773 0 0 0-.605.482.78.78 0 0 0 .112.769.77.77 0 0 0 .719.286.778.778 0 0 0 .654-.882zM13.175 8.88a.773.773 0 0 0-1.087-.128.781.781 0 0 0 .39 1.384.773.773 0 0 0 .766-.394.782.782 0 0 0-.07-.862z"/>
        <path fill="url(#e)" d="M43.683 23.802a2.31 2.31 0 0 1-2.312-2.305 2.29 2.29 0 0 1 .677-1.629 2.315 2.315 0 0 1 1.638-.67 2.316 2.316 0 0 1 1.638.672c.434.432.677 1.019.676 1.63a2.31 2.31 0 0 1-2.317 2.302zm-9.088-19.86a1.26 1.26 0 0 0-.177-.957 1.273 1.273 0 0 0-.807-.55 1.278 1.278 0 0 0-.961.174 1.271 1.271 0 0 0 .429 2.31 1.278 1.278 0 0 0 1.516-.978zm4.561 3.248a1.53 1.53 0 0 0-.275-1.146 1.546 1.546 0 0 0-1.01-.615 1.548 1.548 0 0 0-1.738 1.286 1.542 1.542 0 0 0 1.253 1.757 1.55 1.55 0 0 0 1.77-1.282zm5.955 9.093c.03-.56-.165-1.11-.543-1.527a2.128 2.128 0 0 0-1.47-.696 2.13 2.13 0 0 0-1.536.538c-.42.376-.672.902-.7 1.463-.047.76.319 1.485.959 1.901.64.417 1.455.46 2.136.112a2.116 2.116 0 0 0 1.154-1.791zM23.93.923a.926.926 0 0 0-.93-.923.927.927 0 0 0-.896.924c0 .498.396.906.896.924a.927.927 0 0 0 .93-.925zm9.15 37.157a1.272 1.272 0 1 0 .531 2.489 1.272 1.272 0 1 0-.532-2.489zm4.305-3.551c-.55.08-1.015.45-1.217.965-.201.516-.109 1.1.242 1.53.352.43.908.638 1.456.547a1.54 1.54 0 0 0 1.274-1.758 1.547 1.547 0 0 0-1.755-1.284zm3.325-4.65a1.921 1.921 0 0 0-1.716 2.109 1.926 1.926 0 0 0 2.12 1.707c.509-.052.976-.304 1.299-.7.322-.395.472-.902.418-1.409a1.927 1.927 0 0 0-2.12-1.707zm2.16-5.167a2.122 2.122 0 0 0-2.01 2.225c.029.56.28 1.087.7 1.463.42.375.973.569 1.537.538a2.128 2.128 0 0 0 1.47-.696c.377-.417.572-.967.542-1.527a2.127 2.127 0 0 0-2.239-2.003zm-19.87 16.44a.927.927 0 0 0-.906.924c0 .501.402.911.906.924.513 0 .929-.414.929-.924a.927.927 0 0 0-.93-.924zM2.317 23.802a2.31 2.31 0 0 0 2.311-2.305 2.29 2.29 0 0 0-.676-1.627 2.315 2.315 0 0 0-1.635-.673 2.32 2.32 0 0 0-1.639.674A2.296 2.296 0 0 0 0 21.5a2.313 2.313 0 0 0 2.317 2.302zM12.92 4.918a1.267 1.267 0 1 0 .43-2.31 1.28 1.28 0 0 0-.96-.174 1.274 1.274 0 0 0-.95.85c-.14.43-.04.904.266 1.242a1.28 1.28 0 0 0 1.214.392zM8.616 8.471a1.537 1.537 0 1 0 .669-2.769 1.553 1.553 0 0 0-2.163.342 1.53 1.53 0 0 0-.275 1.145c.133.84.925 1.414 1.77 1.282zM5.29 13.12a1.922 1.922 0 0 0 1.671-2.105 1.927 1.927 0 0 0-2.074-1.713c-.51.052-.977.304-1.3.7a1.914 1.914 0 0 0 .286 2.7c.399.321.908.471 1.417.418zm-2.16 5.166a2.122 2.122 0 0 0 2.013-2.226 2.108 2.108 0 0 0-.702-1.463 2.13 2.13 0 0 0-1.538-.538 2.13 2.13 0 0 0-1.47.696 2.107 2.107 0 0 0-.542 1.527 2.126 2.126 0 0 0 2.239 2.004zm8.278 20.772c-.095.444.056.905.395 1.209.339.304.815.405 1.25.264.433-.14.76-.5.854-.944a1.272 1.272 0 0 0-.984-1.508 1.28 1.28 0 0 0-1.515.98zm-4.56-3.25c-.065.403.034.816.275 1.146.241.331.605.552 1.01.615a1.55 1.55 0 0 0 1.562-.714 1.532 1.532 0 0 0-.066-1.71 1.551 1.551 0 0 0-2.78.663zm-3.678-4.22a1.907 1.907 0 0 0 .418 1.408c.322.396.79.648 1.298.7a1.933 1.933 0 0 0 1.417-.416 1.913 1.913 0 0 0 .284-2.7 1.933 1.933 0 0 0-2.714-.284c-.397.32-.65.785-.703 1.292zM.89 26.714c-.03.56.166 1.11.543 1.527.378.417.907.668 1.47.696A2.129 2.129 0 0 0 4.44 28.4c.42-.376.673-.903.702-1.464a2.123 2.123 0 0 0-2.013-2.224 2.129 2.129 0 0 0-2.24 2.002zm27.206 13.702a.994.994 0 0 0-.706 1.216c.143.53.69.843 1.223.7a.987.987 0 0 0 .708-1.215 1 1 0 0 0-1.225-.701zm-10.19 0a.992.992 0 1 0-.516 1.917c.347.1.721.006.979-.246a.99.99 0 0 0-.463-1.671zM29.32 1.882a.988.988 0 0 0-.71-1.215.992.992 0 1 0-.516 1.917 1.003 1.003 0 0 0 1.226-.702zm-10.708-.516a1.002 1.002 0 0 0-1.225-.7.986.986 0 0 0-.707 1.214 1.003 1.003 0 0 0 1.672.447.99.99 0 0 0 .26-.96z"/>
    </g>
</svg>
